<?xml version="1.0" standalone="no"?>
<!DOCTYPE svg PUBLIC "-//W3C//DTD SVG 20010904//EN"
 "http://www.w3.org/TR/2001/REC-SVG-20010904/DTD/svg10.dtd">
<svg version="1.0" xmlns="http://www.w3.org/2000/svg"
 width="300.000000pt" height="145.000000pt" viewBox="0 0 300.000000 145.000000"
 preserveAspectRatio="xMidYMid meet">
<metadata>
Created by potrace 1.10, written by Peter Selinger 2001-2011
</metadata>
<g transform="translate(0.000000,145.000000) scale(0.100000,-0.100000)"
fill="#000000" stroke="none">
<path d="M60 1233 c0 -2 -1 -91 -1 -199 l0 -196 73 0 c44 0 74 4 76 11 2 7
-19 11 -62 11 l-66 0 0 86 0 86 42 -3 c26 -2 43 1 46 9 2 8 -10 12 -42 12
l-46 0 0 80 0 80 66 0 c46 0 64 4 62 12 -3 7 -31 12 -76 12 -40 1 -72 0 -72
-1z"/>
<path d="M350 1032 c0 -149 3 -203 11 -200 8 3 11 33 10 91 l-2 87 33 0 c33 0
33 0 57 -85 13 -47 27 -88 32 -91 25 -15 23 13 -4 91 l-30 85 27 21 c24 19 26
27 26 94 0 89 -8 98 -96 105 l-64 5 0 -203z m118 156 c7 -6 12 -34 12 -69 0
-65 -12 -79 -69 -79 l-31 0 0 83 0 83 38 -4 c20 -2 43 -9 50 -14z"/>
<path d="M660 1035 c0 -176 2 -205 15 -205 13 0 15 29 15 205 0 176 -2 205
-15 205 -13 0 -15 -29 -15 -205z"/>
<path d="M865 1215 c-24 -24 -25 -28 -25 -180 0 -152 1 -156 25 -180 24 -25
65 -32 100 -19 38 15 66 144 30 144 -11 0 -15 -12 -15 -48 0 -56 -12 -72 -55
-72 -52 0 -55 10 -55 175 0 166 3 175 57 175 37 0 53 -21 53 -69 0 -21 5 -31
15 -31 18 0 20 47 4 83 -23 50 -95 62 -134 22z"/>
<path d="M1154 1225 c-3 -6 -3 -95 -2 -199 l3 -187 73 -2 c52 -2 72 1 72 11 0
8 -19 12 -60 12 l-60 0 0 86 0 86 42 -3 c26 -2 43 1 46 9 2 8 -10 12 -42 12
l-46 0 0 80 0 80 60 0 c41 0 60 4 60 13 0 15 -140 17 -146 2z"/>
<path d="M1450 1035 c0 -161 3 -206 13 -203 9 4 12 53 12 203 0 150 -3 199
-12 203 -10 3 -13 -42 -13 -203z"/>
<path d="M1630 1032 c0 -158 3 -203 13 -199 8 2 12 30 12 90 l0 87 31 0 c30 0
31 -2 58 -90 18 -57 33 -90 42 -90 18 0 19 -9 -16 95 -35 104 -34 95 -15 95
23 0 45 54 45 109 0 73 -26 98 -107 103 l-63 4 0 -204z m130 144 c12 -31 6
-102 -10 -121 -7 -9 -29 -15 -51 -15 l-39 0 0 80 0 80 45 0 c39 0 47 -4 55
-24z"/>
<path d="M2016 1228 c-17 -59 -87 -391 -82 -395 10 -10 25 8 31 40 14 70 13
68 68 65 l51 -3 11 -49 c5 -27 16 -51 23 -54 17 -5 16 2 -32 212 -38 171 -58
224 -70 184z m38 -155 c10 -47 20 -92 23 -100 4 -10 -8 -13 -47 -13 -46 0 -51
2 -45 18 4 9 15 54 24 99 9 46 18 83 21 83 3 0 14 -39 24 -87z"/>
<path d="M2870 870 c-41 -41 -13 -112 45 -112 58 0 86 71 45 112 -11 11 -31
20 -45 20 -14 0 -34 -9 -45 -20z m80 -10 c21 -21 23 -29 14 -54 -5 -13 -9 -14
-20 -5 -11 9 -11 15 -3 25 15 18 3 34 -27 34 -22 0 -24 -4 -23 -42 1 -24 4
-33 6 -20 5 27 12 28 29 5 19 -26 17 -33 -10 -33 -25 0 -56 32 -56 57 0 18 37
53 55 53 8 0 24 -9 35 -20z m-20 -20 c0 -5 -7 -10 -15 -10 -8 0 -15 5 -15 10
0 6 7 10 15 10 8 0 15 -4 15 -10z"/>
<path d="M1369 735 c-43 -23 -51 -58 -47 -215 3 -141 3 -142 31 -166 30 -26
92 -33 128 -14 28 15 49 63 49 112 l0 43 -42 -1 -43 -1 0 -39 c0 -33 -4 -40
-23 -42 l-23 -3 3 128 c3 120 4 128 23 128 16 0 20 -7 20 -34 0 -32 1 -33 43
-35 42 -2 42 -2 42 32 0 96 -82 150 -161 107z m105 -27 c14 -13 28 -37 31 -53
4 -27 2 -31 -21 -33 -15 -1 -24 3 -23 11 3 26 -2 37 -22 47 -16 9 -25 8 -40
-6 -17 -15 -19 -31 -19 -131 0 -126 8 -153 46 -153 25 0 36 15 38 53 1 15 9
23 23 25 20 3 21 0 18 -40 -5 -57 -35 -82 -89 -75 -65 9 -71 21 -74 168 -2 84
1 141 8 159 21 51 83 64 124 28z"/>
<path d="M1660 745 c0 0 -1 -93 -3 -208 l-2 -207 93 0 92 0 0 43 0 42 -50 -3
-50 -4 0 169 0 169 -40 -1 c-22 0 -40 0 -40 0z m60 -178 c0 -167 3 -177 56
-177 18 0 34 -6 37 -14 7 -17 -15 -23 -68 -20 -22 1 -46 3 -52 3 -10 1 -13 44
-13 181 0 173 1 180 20 180 19 0 20 -7 20 -153z"/>
<path d="M1960 569 c0 -176 0 -178 26 -208 22 -26 33 -31 71 -31 100 0 113 28
113 248 l0 168 -42 -2 -43 -2 -2 -163 c-1 -158 -2 -164 -22 -167 -21 -3 -21 0
-21 165 l0 168 -40 0 -40 1 0 -177z m59 6 c0 -156 7 -185 46 -185 41 0 47 29
43 186 -4 142 -4 144 18 144 21 0 22 -4 23 -111 1 -78 -2 -116 -11 -127 -7 -9
-8 -13 -2 -9 15 9 11 -61 -5 -90 -22 -43 -117 -39 -140 6 -7 11 -11 85 -11
175 0 147 1 156 19 156 18 0 20 -9 20 -145z"/>
<path d="M2300 538 l0 -208 65 0 c80 0 119 18 134 61 15 43 13 98 -3 129 -10
18 -11 30 -4 44 6 10 8 43 6 73 -7 79 -32 100 -125 105 l-73 4 0 -208z m151
163 c22 -17 24 -28 25 -103 1 -45 5 -104 9 -130 13 -86 -34 -128 -126 -113
l-40 7 2 179 1 179 53 0 c37 0 60 -6 76 -19z"/>
<path d="M2372 668 c-17 -17 -15 -83 3 -98 37 -31 78 23 59 78 -10 30 -42 40
-62 20z m48 -47 c0 -24 -5 -41 -14 -44 -20 -8 -26 2 -26 45 0 31 3 38 20 38
17 0 20 -7 20 -39z"/>
<path d="M2370 501 c-23 -44 -3 -111 34 -111 25 0 44 34 40 70 -6 54 -53 80
-74 41z m55 -46 c0 -34 -3 -40 -22 -43 -21 -3 -23 1 -23 43 0 42 2 46 23 43
19 -3 22 -9 22 -43z"/>
<path d="M2640 538 l0 -208 90 0 90 0 0 43 0 42 -50 -3 -50 -4 0 46 c0 46 0
46 35 46 35 0 35 1 35 43 l0 43 -35 -4 c-35 -4 -35 -4 -35 37 l0 41 50 0 50 0
0 43 0 42 -90 0 -90 0 0 -207z m145 183 c6 0 11 -10 12 -20 1 -17 -6 -20 -45
-23 l-47 -3 0 -50 c0 -48 1 -50 33 -60 21 -6 32 -15 32 -28 0 -13 -5 -17 -16
-13 -33 13 -54 -12 -54 -64 0 -59 16 -77 64 -74 29 3 36 0 36 -15 0 -15 -10
-17 -69 -18 l-70 0 -1 183 0 183 32 3 c30 3 67 3 93 -1z"/>
<path d="M76 719 c-23 -18 -26 -28 -26 -79 0 -55 2 -60 36 -87 89 -71 97 -81
91 -120 -9 -52 -40 -68 -72 -36 -11 11 -15 28 -13 50 4 30 2 33 -23 33 -26 0
-26 -1 -21 -47 6 -64 16 -79 56 -93 27 -9 42 -8 70 4 69 29 73 147 5 198 -85
64 -108 105 -77 136 32 32 87 -4 73 -48 -5 -17 -2 -20 24 -20 36 0 40 19 17
75 -24 57 -90 73 -140 34z"/>
<path d="M370 576 c0 -91 4 -176 10 -191 12 -31 71 -59 103 -49 12 3 32 16 45
27 21 20 22 27 22 199 l0 178 -25 0 -25 0 0 -169 c0 -139 -3 -171 -15 -181
-12 -10 -21 -10 -40 -2 l-25 12 0 170 0 170 -25 0 -25 0 0 -164z"/>
<path d="M708 540 l-3 -200 28 0 28 0 -2 83 c-2 68 1 83 14 85 15 3 33 -44 52
-135 6 -28 11 -33 35 -33 l28 0 -25 86 c-21 76 -22 87 -9 98 34 25 45 97 25
156 -14 39 -58 60 -123 60 l-45 0 -3 -200z m42 155 c-7 -9 -15 -13 -17 -11 -7
7 7 26 19 26 6 0 6 -6 -2 -15z m75 -75 c0 -55 0 -55 -32 -58 l-33 -3 0 61 0
61 33 -3 c32 -3 32 -3 32 -58z m-76 -74 c8 -10 8 -16 -1 -24 -10 -8 -13 -4
-13 14 0 28 -1 28 14 10z m85 -10 c-15 -24 -44 -26 -44 -4 0 6 6 8 14 5 8 -3
20 1 26 9 20 23 22 16 4 -10z"/>
<path d="M1034 731 c-2 -2 -4 -91 -4 -197 l1 -194 27 0 27 0 -3 90 -4 90 41 0
c37 0 41 2 41 25 0 23 -4 25 -40 25 l-41 0 3 58 3 57 53 -3 c51 -4 52 -3 52
25 l0 28 -76 0 c-42 0 -77 -2 -80 -4z m38 -203 c-9 -9 -12 -7 -12 12 0 19 3
21 12 12 9 -9 9 -15 0 -24z"/>
</g>
</svg>
